<svg width="624" height="431" viewBox="0 0 624 431" fill="none" xmlns="http://www.w3.org/2000/svg">
<rect width="624" height="431" fill="#F5F5F5"/>
<g id="Frame 1">
<rect width="624" height="431" fill="white"/>
<g id="programmer 1" clip-path="url(#clip0_0_1)">
<path id="Vector" d="M360.344 119.762C371.327 119.762 380.23 112.68 380.23 103.944C380.23 95.2088 371.327 88.1272 360.344 88.1272C349.361 88.1272 340.458 95.2088 340.458 103.944C340.458 112.68 349.361 119.762 360.344 119.762Z" fill="#F2F2F2"/>
<path id="Vector_2" d="M482.381 345.122C511.939 327.215 526.057 297.124 517.219 268.418C516.999 267.705 516.767 266.994 516.523 266.284C510.664 249.244 496.167 233.05 475.04 227.606C457.299 223.034 437.935 226.55 419.428 224.732C383.097 221.163 354.931 197.781 335.112 173.301C315.293 148.82 300.062 121.417 273.727 101.192C230.318 67.8555 159.507 60.678 105.687 82.3779C51.8661 104.078 17.5829 152.221 19.045 200.202C20.5071 248.182 56.318 294.055 108.324 318.394C127.429 327.334 149.526 333.668 171.517 331.452C190.598 329.529 207.935 321.374 226.927 318.953C256.785 315.146 286.454 325.884 312.279 338.397C338.105 350.91 363.05 365.742 392.397 371.543C420.893 377.176 456.197 360.986 482.381 345.122Z" fill="#F2F2F2"/>
<path id="Vector_3" d="M472.137 92.771C471.489 92.4274 470.834 92.1016 470.186 91.7699C451.456 82.2417 431.38 74.5012 410.374 68.7081L405.503 122.154H374.625V60.9063C372.681 60.5864 370.722 60.2843 368.763 60V122.154H332.068C311.868 122.154 292.494 115.771 278.21 104.409C263.926 93.0474 255.901 77.6377 255.901 61.5699V61.5698C253.935 61.9075 251.983 62.2688 250.032 62.6539V122.154H220.144L215.505 71.1902C193.917 77.7754 173.423 86.4353 154.478 96.977C154.15 97.1547 153.823 97.3383 153.502 97.5161C151.857 98.4343 150.233 99.3703 148.617 100.318V304.213H236.701L235.144 287.063L226.579 192.903H399.061L390.496 287.063L388.939 304.213H476.047V94.8325C474.752 94.1335 473.448 93.4464 472.137 92.771ZM250.032 177.353H225.164L220.569 126.822H250.032V177.353ZM368.763 177.353H326.997V176.351C326.997 175.87 326.877 175.394 326.646 174.949C326.414 174.504 326.074 174.101 325.646 173.761C325.218 173.421 324.71 173.151 324.15 172.967C323.591 172.784 322.992 172.69 322.387 172.69H304.229C303.625 172.69 303.026 172.785 302.467 172.969C301.909 173.153 301.401 173.422 300.974 173.762C300.547 174.102 300.207 174.506 299.976 174.95C299.745 175.394 299.626 175.871 299.626 176.351V177.353H255.901V126.822H368.763V177.353ZM374.625 177.353V126.822H405.078L400.483 177.353H374.625Z" fill="#3F3D56"/>
<path id="Vector_4" d="M19 317.27C25.47 323.367 32.468 329.098 39.9429 334.419L584.057 335.012C591.532 329.69 598.53 323.96 605 317.862L19 317.27Z" fill="#3F3D56"/>
<path id="Vector_5" d="M387.981 262.355V313.126C387.982 313.773 388.305 314.393 388.881 314.851C389.456 315.308 390.236 315.565 391.049 315.566H485.638C486.452 315.565 487.232 315.308 487.807 314.851C488.382 314.393 488.705 313.773 488.706 313.126V262.355C488.704 261.709 488.38 261.09 487.805 260.633C487.23 260.176 486.451 259.919 485.638 259.918H391.049C390.236 259.919 389.457 260.176 388.882 260.633C388.307 261.09 387.983 261.709 387.981 262.355V262.355Z" fill="#3F3D56"/>
<path id="Vector_6" d="M390.2 262.987V312.499C390.201 312.845 390.374 313.176 390.681 313.421C390.989 313.665 391.405 313.803 391.84 313.803H484.851C485.286 313.803 485.702 313.665 486.009 313.421C486.317 313.176 486.49 312.845 486.49 312.499V262.987C486.49 262.641 486.318 262.309 486.01 262.064C485.703 261.819 485.286 261.681 484.851 261.68H391.84C391.405 261.681 390.988 261.819 390.68 262.064C390.373 262.309 390.2 262.641 390.2 262.987V262.987Z" fill="#6C63FF"/>
<path id="Vector_7" d="M386.003 323.027C386.176 323.2 386.397 323.339 386.647 323.435C386.898 323.53 387.173 323.579 387.451 323.578H488.733C489.01 323.578 489.284 323.528 489.534 323.433C489.784 323.339 490.004 323.201 490.178 323.029C490.353 322.858 490.477 322.658 490.542 322.444C490.608 322.23 490.612 322.007 490.555 321.792L488.983 315.852C488.918 315.609 488.777 315.384 488.575 315.196C488.372 315.008 488.113 314.863 487.822 314.775C487.612 314.709 487.387 314.675 487.161 314.675H389.017C388.79 314.675 388.566 314.709 388.355 314.775C388.064 314.863 387.806 315.008 387.603 315.196C387.4 315.384 387.26 315.609 387.195 315.852L385.623 321.792C385.567 322.007 385.572 322.23 385.638 322.444C385.703 322.657 385.828 322.857 386.003 323.027V323.027Z" fill="#2F2E41"/>
<path id="Vector_8" d="M483.686 317.234H486.078C486.279 317.234 486.442 317.104 486.442 316.945V316.034C486.442 315.875 486.279 315.745 486.078 315.745H483.686C483.485 315.745 483.322 315.875 483.322 316.034V316.945C483.322 317.104 483.485 317.234 483.686 317.234Z" fill="#3F3D56"/>
<path id="Vector_9" d="M477.447 317.234H479.839C480.04 317.234 480.203 317.104 480.203 316.945V316.034C480.203 315.875 480.04 315.745 479.839 315.745H477.447C477.246 315.745 477.083 315.875 477.083 316.034V316.945C477.083 317.104 477.246 317.234 477.447 317.234Z" fill="#3F3D56"/>
<path id="Vector_10" d="M471.208 317.234H473.6C473.801 317.234 473.964 317.104 473.964 316.945V316.034C473.964 315.875 473.801 315.745 473.6 315.745H471.208C471.007 315.745 470.844 315.875 470.844 316.034V316.945C470.844 317.104 471.007 317.234 471.208 317.234Z" fill="#3F3D56"/>
<path id="Vector_11" d="M464.969 317.234H467.361C467.562 317.234 467.725 317.104 467.725 316.945V316.034C467.725 315.875 467.562 315.745 467.361 315.745H464.969C464.768 315.745 464.606 315.875 464.606 316.034V316.945C464.606 317.104 464.768 317.234 464.969 317.234Z" fill="#3F3D56"/>
<path id="Vector_12" d="M458.73 317.234H461.122C461.323 317.234 461.486 317.104 461.486 316.945V316.034C461.486 315.875 461.323 315.745 461.122 315.745H458.73C458.529 315.745 458.367 315.875 458.367 316.034V316.945C458.367 317.104 458.529 317.234 458.73 317.234Z" fill="#3F3D56"/>
<path id="Vector_13" d="M452.491 317.234H454.884C455.084 317.234 455.247 317.104 455.247 316.945V316.034C455.247 315.875 455.084 315.745 454.884 315.745H452.491C452.29 315.745 452.128 315.875 452.128 316.034V316.945C452.128 317.104 452.29 317.234 452.491 317.234Z" fill="#3F3D56"/>
<path id="Vector_14" d="M446.252 317.234H448.645C448.845 317.234 449.008 317.104 449.008 316.945V316.034C449.008 315.875 448.845 315.745 448.645 315.745H446.252C446.052 315.745 445.889 315.875 445.889 316.034V316.945C445.889 317.104 446.052 317.234 446.252 317.234Z" fill="#3F3D56"/>
<path id="Vector_15" d="M440.013 317.234H442.406C442.607 317.234 442.769 317.104 442.769 316.945V316.034C442.769 315.875 442.607 315.745 442.406 315.745H440.013C439.813 315.745 439.65 315.875 439.65 316.034V316.945C439.65 317.104 439.813 317.234 440.013 317.234Z" fill="#3F3D56"/>
<path id="Vector_16" d="M433.774 317.234H436.167C436.368 317.234 436.53 317.104 436.53 316.945V316.034C436.53 315.875 436.368 315.745 436.167 315.745H433.774C433.574 315.745 433.411 315.875 433.411 316.034V316.945C433.411 317.104 433.574 317.234 433.774 317.234Z" fill="#3F3D56"/>
<path id="Vector_17" d="M427.536 317.234H429.928C430.129 317.234 430.291 317.104 430.291 316.945V316.034C430.291 315.875 430.129 315.745 429.928 315.745H427.536C427.335 315.745 427.172 315.875 427.172 316.034V316.945C427.172 317.104 427.335 317.234 427.536 317.234Z" fill="#3F3D56"/>
<path id="Vector_18" d="M421.297 317.234H423.689C423.89 317.234 424.052 317.104 424.052 316.945V316.034C424.052 315.875 423.89 315.745 423.689 315.745H421.297C421.096 315.745 420.933 315.875 420.933 316.034V316.945C420.933 317.104 421.096 317.234 421.297 317.234Z" fill="#3F3D56"/>
<path id="Vector_19" d="M415.058 317.234H417.45C417.651 317.234 417.814 317.104 417.814 316.945V316.034C417.814 315.875 417.651 315.745 417.45 315.745H415.058C414.857 315.745 414.694 315.875 414.694 316.034V316.945C414.694 317.104 414.857 317.234 415.058 317.234Z" fill="#3F3D56"/>
<path id="Vector_20" d="M408.819 317.234H411.211C411.412 317.234 411.575 317.104 411.575 316.945V316.034C411.575 315.875 411.412 315.745 411.211 315.745H408.819C408.618 315.745 408.455 315.875 408.455 316.034V316.945C408.455 317.104 408.618 317.234 408.819 317.234Z" fill="#3F3D56"/>
<path id="Vector_21" d="M402.58 317.234H404.972C405.173 317.234 405.336 317.104 405.336 316.945V316.034C405.336 315.875 405.173 315.745 404.972 315.745H402.58C402.379 315.745 402.216 315.875 402.216 316.034V316.945C402.216 317.104 402.379 317.234 402.58 317.234Z" fill="#3F3D56"/>
<path id="Vector_22" d="M396.341 317.234H398.733C398.934 317.234 399.097 317.104 399.097 316.945V316.034C399.097 315.875 398.934 315.745 398.733 315.745H396.341C396.14 315.745 395.977 315.875 395.977 316.034V316.945C395.977 317.104 396.14 317.234 396.341 317.234Z" fill="#3F3D56"/>
<path id="Vector_23" d="M390.102 317.234H392.494C392.695 317.234 392.858 317.104 392.858 316.945V316.034C392.858 315.875 392.695 315.745 392.494 315.745H390.102C389.901 315.745 389.738 315.875 389.738 316.034V316.945C389.738 317.104 389.901 317.234 390.102 317.234Z" fill="#3F3D56"/>
<path id="Vector_24" d="M483.76 319.715H486.152C486.353 319.715 486.516 319.586 486.516 319.426V318.516C486.516 318.356 486.353 318.226 486.152 318.226H483.76C483.559 318.226 483.396 318.356 483.396 318.516V319.426C483.396 319.586 483.559 319.715 483.76 319.715Z" fill="#3F3D56"/>
<path id="Vector_25" d="M477.521 319.715H479.913C480.114 319.715 480.277 319.586 480.277 319.426V318.516C480.277 318.356 480.114 318.226 479.913 318.226H477.521C477.32 318.226 477.157 318.356 477.157 318.516V319.426C477.157 319.586 477.32 319.715 477.521 319.715Z" fill="#3F3D56"/>
<path id="Vector_26" d="M471.282 319.715H473.674C473.875 319.715 474.038 319.586 474.038 319.426V318.516C474.038 318.356 473.875 318.226 473.674 318.226H471.282C471.081 318.226 470.918 318.356 470.918 318.516V319.426C470.918 319.586 471.081 319.715 471.282 319.715Z" fill="#3F3D56"/>
<path id="Vector_27" d="M465.043 319.715H467.435C467.636 319.715 467.799 319.586 467.799 319.426V318.516C467.799 318.356 467.636 318.226 467.435 318.226H465.043C464.842 318.226 464.679 318.356 464.679 318.516V319.426C464.679 319.586 464.842 319.715 465.043 319.715Z" fill="#3F3D56"/>
<path id="Vector_28" d="M458.804 319.715H461.196C461.397 319.715 461.56 319.586 461.56 319.426V318.516C461.56 318.356 461.397 318.226 461.196 318.226H458.804C458.603 318.226 458.44 318.356 458.44 318.516V319.426C458.44 319.586 458.603 319.715 458.804 319.715Z" fill="#3F3D56"/>
<path id="Vector_29" d="M452.565 319.715H454.957C455.158 319.715 455.321 319.586 455.321 319.426V318.516C455.321 318.356 455.158 318.226 454.957 318.226H452.565C452.364 318.226 452.201 318.356 452.201 318.516V319.426C452.201 319.586 452.364 319.715 452.565 319.715Z" fill="#3F3D56"/>
<path id="Vector_30" d="M446.326 319.715H448.718C448.919 319.715 449.082 319.586 449.082 319.426V318.516C449.082 318.356 448.919 318.226 448.718 318.226H446.326C446.125 318.226 445.962 318.356 445.962 318.516V319.426C445.962 319.586 446.125 319.715 446.326 319.715Z" fill="#3F3D56"/>
<path id="Vector_31" d="M440.087 319.715H442.479C442.68 319.715 442.843 319.586 442.843 319.426V318.516C442.843 318.356 442.68 318.226 442.479 318.226H440.087C439.886 318.226 439.724 318.356 439.724 318.516V319.426C439.724 319.586 439.886 319.715 440.087 319.715Z" fill="#3F3D56"/>
<path id="Vector_32" d="M433.848 319.715H436.24C436.441 319.715 436.604 319.586 436.604 319.426V318.516C436.604 318.356 436.441 318.226 436.24 318.226H433.848C433.647 318.226 433.485 318.356 433.485 318.516V319.426C433.485 319.586 433.647 319.715 433.848 319.715Z" fill="#3F3D56"/>
<path id="Vector_33" d="M427.609 319.715H430.002C430.202 319.715 430.365 319.586 430.365 319.426V318.516C430.365 318.356 430.202 318.226 430.002 318.226H427.609C427.408 318.226 427.246 318.356 427.246 318.516V319.426C427.246 319.586 427.408 319.715 427.609 319.715Z" fill="#3F3D56"/>
<path id="Vector_34" d="M421.37 319.715H423.763C423.963 319.715 424.126 319.586 424.126 319.426V318.516C424.126 318.356 423.963 318.226 423.763 318.226H421.37C421.17 318.226 421.007 318.356 421.007 318.516V319.426C421.007 319.586 421.17 319.715 421.37 319.715Z" fill="#3F3D56"/>
<path id="Vector_35" d="M415.131 319.715H417.524C417.725 319.715 417.887 319.586 417.887 319.426V318.516C417.887 318.356 417.725 318.226 417.524 318.226H415.131C414.931 318.226 414.768 318.356 414.768 318.516V319.426C414.768 319.586 414.931 319.715 415.131 319.715Z" fill="#3F3D56"/>
<path id="Vector_36" d="M408.893 319.715H411.285C411.486 319.715 411.648 319.586 411.648 319.426V318.516C411.648 318.356 411.486 318.226 411.285 318.226H408.893C408.692 318.226 408.529 318.356 408.529 318.516V319.426C408.529 319.586 408.692 319.715 408.893 319.715Z" fill="#3F3D56"/>
<path id="Vector_37" d="M402.654 319.715H405.046C405.247 319.715 405.409 319.586 405.409 319.426V318.516C405.409 318.356 405.247 318.226 405.046 318.226H402.654C402.453 318.226 402.29 318.356 402.29 318.516V319.426C402.29 319.586 402.453 319.715 402.654 319.715Z" fill="#3F3D56"/>
<path id="Vector_38" d="M396.415 319.715H398.807C399.008 319.715 399.171 319.586 399.171 319.426V318.516C399.171 318.356 399.008 318.226 398.807 318.226H396.415C396.214 318.226 396.051 318.356 396.051 318.516V319.426C396.051 319.586 396.214 319.715 396.415 319.715Z" fill="#3F3D56"/>
<path id="Vector_39" d="M390.176 319.715H392.568C392.769 319.715 392.932 319.586 392.932 319.426V318.516C392.932 318.356 392.769 318.226 392.568 318.226H390.176C389.975 318.226 389.812 318.356 389.812 318.516V319.426C389.812 319.586 389.975 319.715 390.176 319.715Z" fill="#3F3D56"/>
<path id="Vector_40" d="M431.977 322.693H456.205C456.406 322.693 456.569 322.563 456.569 322.403V321.493C456.569 321.333 456.406 321.204 456.205 321.204H431.977C431.776 321.204 431.613 321.333 431.613 321.493V322.403C431.613 322.563 431.776 322.693 431.977 322.693Z" fill="#3F3D56"/>
<g id="small-line1">
<path id="Vector_41" d="M406.307 272.512H404.189C403.547 272.512 403.027 272.926 403.027 273.437C403.027 273.948 403.547 274.362 404.189 274.362H406.307C406.949 274.362 407.47 273.948 407.47 273.437C407.47 272.926 406.949 272.512 406.307 272.512Z" fill="white"/>
<path id="Vector_42" d="M430.529 272.512H428.411C427.769 272.512 427.249 272.926 427.249 273.437C427.249 273.948 427.769 274.362 428.411 274.362H430.529C431.171 274.362 431.692 273.948 431.692 273.437C431.692 272.926 431.171 272.512 430.529 272.512Z" fill="white"/>
<path id="Vector_43" d="M437.392 272.512H435.274C434.632 272.512 434.112 272.926 434.112 273.437C434.112 273.948 434.632 274.362 435.274 274.362H437.392C438.034 274.362 438.555 273.948 438.555 273.437C438.555 272.926 438.034 272.512 437.392 272.512Z" fill="white"/>
<path id="Vector_44" d="M423.941 272.358H410.778C410.136 272.358 409.615 272.772 409.615 273.283C409.615 273.794 410.136 274.208 410.778 274.208H423.941C424.583 274.208 425.103 273.794 425.103 273.283C425.103 272.772 424.583 272.358 423.941 272.358Z" fill="white"/>
<path id="Vector_45" d="M456.237 272.358H443.074C442.432 272.358 441.911 272.772 441.911 273.283C441.911 273.794 442.432 274.208 443.074 274.208H456.237C456.879 274.208 457.4 273.794 457.4 273.283C457.4 272.772 456.879 272.358 456.237 272.358Z" fill="white"/>
</g>
<g id="small-line2">
<path id="Vector_46" d="M412.766 276.687H410.648C410.006 276.687 409.486 277.101 409.486 277.612C409.486 278.122 410.006 278.536 410.648 278.536H412.766C413.409 278.536 413.929 278.122 413.929 277.612C413.929 277.101 413.409 276.687 412.766 276.687Z" fill="white"/>
<path id="Vector_47" d="M436.989 276.687H434.871C434.229 276.687 433.708 277.101 433.708 277.612C433.708 278.122 434.229 278.536 434.871 278.536H436.989C437.631 278.536 438.151 278.122 438.151 277.612C438.151 277.101 437.631 276.687 436.989 276.687Z" fill="white"/>
<path id="Vector_48" d="M443.852 276.687H441.734C441.092 276.687 440.571 277.101 440.571 277.612C440.571 278.122 441.092 278.536 441.734 278.536H443.852C444.494 278.536 445.014 278.122 445.014 277.612C445.014 277.101 444.494 276.687 443.852 276.687Z" fill="white"/>
<path id="Vector_49" d="M430.4 276.533H417.237C416.595 276.533 416.074 276.947 416.074 277.457C416.074 277.968 416.595 278.382 417.237 278.382H430.4C431.042 278.382 431.563 277.968 431.563 277.457C431.563 276.947 431.042 276.533 430.4 276.533Z" fill="white"/>
<path id="Vector_50" d="M462.696 276.533H449.533C448.891 276.533 448.371 276.947 448.371 277.457C448.371 277.968 448.891 278.382 449.533 278.382H462.696C463.338 278.382 463.859 277.968 463.859 277.457C463.859 276.947 463.338 276.533 462.696 276.533Z" fill="white"/>
</g>
<g id="small-line3">
<path id="Vector_51" d="M419.226 280.861H417.108C416.466 280.861 415.945 281.275 415.945 281.786C415.945 282.297 416.466 282.711 417.108 282.711H419.226C419.868 282.711 420.388 282.297 420.388 281.786C420.388 281.275 419.868 280.861 419.226 280.861Z" fill="white"/>
<path id="Vector_52" d="M443.448 280.861H441.33C440.688 280.861 440.167 281.275 440.167 281.786C440.167 282.297 440.688 282.711 441.33 282.711H443.448C444.09 282.711 444.61 282.297 444.61 281.786C444.61 281.275 444.09 280.861 443.448 280.861Z" fill="white"/>
<path id="Vector_53" d="M450.311 280.861H448.193C447.551 280.861 447.03 281.275 447.03 281.786C447.03 282.297 447.551 282.711 448.193 282.711H450.311C450.953 282.711 451.473 282.297 451.473 281.786C451.473 281.275 450.953 280.861 450.311 280.861Z" fill="white"/>
<path id="Vector_54" d="M436.859 280.707H423.696C423.054 280.707 422.534 281.121 422.534 281.632C422.534 282.142 423.054 282.556 423.696 282.556H436.859C437.501 282.556 438.022 282.142 438.022 281.632C438.022 281.121 437.501 280.707 436.859 280.707Z" fill="white"/>
<path id="Vector_55" d="M469.156 280.707H455.992C455.35 280.707 454.83 281.121 454.83 281.632C454.83 282.142 455.35 282.556 455.992 282.556H469.156C469.798 282.556 470.318 282.142 470.318 281.632C470.318 281.121 469.798 280.707 469.156 280.707Z" fill="white"/>
</g>
<g id="small-line4">
<path id="Vector_56" d="M425.685 285.036H423.567C422.925 285.036 422.404 285.45 422.404 285.96C422.404 286.471 422.925 286.885 423.567 286.885H425.685C426.327 286.885 426.848 286.471 426.848 285.96C426.848 285.45 426.327 285.036 425.685 285.036Z" fill="white"/>
<path id="Vector_57" d="M449.907 285.036H447.789C447.147 285.036 446.626 285.45 446.626 285.96C446.626 286.471 447.147 286.885 447.789 286.885H449.907C450.549 286.885 451.07 286.471 451.07 285.96C451.07 285.45 450.549 285.036 449.907 285.036Z" fill="white"/>
<path id="Vector_58" d="M456.77 285.036H454.652C454.01 285.036 453.489 285.45 453.489 285.96C453.489 286.471 454.01 286.885 454.652 286.885H456.77C457.412 286.885 457.933 286.471 457.933 285.96C457.933 285.45 457.412 285.036 456.77 285.036Z" fill="white"/>
<path id="Vector_59" d="M443.319 284.881H430.156C429.513 284.881 428.993 285.295 428.993 285.806C428.993 286.317 429.513 286.731 430.156 286.731H443.319C443.961 286.731 444.481 286.317 444.481 285.806C444.481 285.295 443.961 284.881 443.319 284.881Z" fill="white"/>
</g>
<g id="small-line8">
<path id="Vector_60" d="M430.529 301.635H428.411C427.769 301.635 427.249 302.049 427.249 302.559C427.249 303.07 427.769 303.484 428.411 303.484H430.529C431.171 303.484 431.692 303.07 431.692 302.559C431.692 302.049 431.171 301.635 430.529 301.635Z" fill="white"/>
<path id="Vector_61" d="M437.392 301.635H435.274C434.632 301.635 434.112 302.049 434.112 302.559C434.112 303.07 434.632 303.484 435.274 303.484H437.392C438.034 303.484 438.555 303.07 438.555 302.559C438.555 302.049 438.034 301.635 437.392 301.635Z" fill="white"/>
<path id="Vector_62" d="M456.237 301.789H443.074C442.432 301.789 441.911 302.203 441.911 302.714C441.911 303.224 442.432 303.638 443.074 303.638H456.237C456.879 303.638 457.4 303.224 457.4 302.714C457.4 302.203 456.879 301.789 456.237 301.789Z" fill="white"/>
<path id="Vector_63" d="M406.307 301.635H404.189C403.547 301.635 403.027 302.049 403.027 302.559C403.027 303.07 403.547 303.484 404.189 303.484H406.307C406.949 303.484 407.47 303.07 407.47 302.559C407.47 302.049 406.949 301.635 406.307 301.635Z" fill="white"/>
<path id="Vector_64" d="M423.941 301.789H410.778C410.136 301.789 409.615 302.203 409.615 302.714C409.615 303.224 410.136 303.638 410.778 303.638H423.941C424.583 303.638 425.103 303.224 425.103 302.714C425.103 302.203 424.583 301.789 423.941 301.789Z" fill="white"/>
</g>
<g id="small-line7">
<path id="Vector_65" d="M412.766 297.46H410.648C410.006 297.46 409.486 297.874 409.486 298.385C409.486 298.896 410.006 299.31 410.648 299.31H412.766C413.409 299.31 413.929 298.896 413.929 298.385C413.929 297.874 413.409 297.46 412.766 297.46Z" fill="white"/>
<path id="Vector_66" d="M436.989 297.46H434.871C434.229 297.46 433.708 297.874 433.708 298.385C433.708 298.896 434.229 299.31 434.871 299.31H436.989C437.631 299.31 438.151 298.896 438.151 298.385C438.151 297.874 437.631 297.46 436.989 297.46Z" fill="white"/>
<path id="Vector_67" d="M443.852 297.46H441.734C441.092 297.46 440.571 297.874 440.571 298.385C440.571 298.896 441.092 299.31 441.734 299.31H443.852C444.494 299.31 445.014 298.896 445.014 298.385C445.014 297.874 444.494 297.46 443.852 297.46Z" fill="white"/>
<path id="Vector_68" d="M430.4 297.614H417.237C416.595 297.614 416.074 298.028 416.074 298.539C416.074 299.05 416.595 299.464 417.237 299.464H430.4C431.042 299.464 431.563 299.05 431.563 298.539C431.563 298.028 431.042 297.614 430.4 297.614Z" fill="white"/>
</g>
<g id="small-line6">
<path id="Vector_69" d="M419.226 293.286H417.108C416.466 293.286 415.945 293.7 415.945 294.211C415.945 294.721 416.466 295.135 417.108 295.135H419.226C419.868 295.135 420.388 294.721 420.388 294.211C420.388 293.7 419.868 293.286 419.226 293.286Z" fill="white"/>
<path id="Vector_70" d="M443.448 293.286H441.33C440.688 293.286 440.167 293.7 440.167 294.211C440.167 294.721 440.688 295.135 441.33 295.135H443.448C444.09 295.135 444.61 294.721 444.61 294.211C444.61 293.7 444.09 293.286 443.448 293.286Z" fill="white"/>
<path id="Vector_71" d="M450.311 293.286H448.193C447.551 293.286 447.03 293.7 447.03 294.211C447.03 294.721 447.551 295.135 448.193 295.135H450.311C450.953 295.135 451.473 294.721 451.473 294.211C451.473 293.7 450.953 293.286 450.311 293.286Z" fill="white"/>
<path id="Vector_72" d="M436.859 293.44H423.696C423.054 293.44 422.534 293.854 422.534 294.365C422.534 294.876 423.054 295.29 423.696 295.29H436.859C437.501 295.29 438.022 294.876 438.022 294.365C438.022 293.854 437.501 293.44 436.859 293.44Z" fill="white"/>
</g>
<g id="small-line5">
<path id="Vector_73" d="M425.685 289.111H423.567C422.925 289.111 422.404 289.525 422.404 290.036C422.404 290.547 422.925 290.961 423.567 290.961H425.685C426.327 290.961 426.848 290.547 426.848 290.036C426.848 289.525 426.327 289.111 425.685 289.111Z" fill="white"/>
<path id="Vector_74" d="M449.907 289.111H447.789C447.147 289.111 446.626 289.525 446.626 290.036C446.626 290.547 447.147 290.961 447.789 290.961H449.907C450.549 290.961 451.07 290.547 451.07 290.036C451.07 289.525 450.549 289.111 449.907 289.111Z" fill="white"/>
<path id="Vector_75" d="M456.77 289.111H454.652C454.01 289.111 453.489 289.525 453.489 290.036C453.489 290.547 454.01 290.961 454.652 290.961H456.77C457.412 290.961 457.933 290.547 457.933 290.036C457.933 289.525 457.412 289.111 456.77 289.111Z" fill="white"/>
<path id="Vector_76" d="M443.319 289.266H430.156C429.513 289.266 428.993 289.68 428.993 290.19C428.993 290.701 429.513 291.115 430.156 291.115H443.319C443.961 291.115 444.481 290.701 444.481 290.19C444.481 289.68 443.961 289.266 443.319 289.266Z" fill="white"/>
</g>
<path id="Vector_77" d="M395.047 350.557L385.105 338.056L416.312 318.269L429.193 306.918C430.867 305.443 432.998 304.344 435.373 303.729C437.748 303.115 440.284 303.007 442.728 303.416C445.172 303.826 447.438 304.738 449.3 306.062C451.162 307.387 452.554 309.076 453.337 310.963C454.498 313.758 454.249 316.803 452.641 319.454C451.033 322.106 448.193 324.157 444.72 325.175L424.352 331.143L395.047 350.557Z" fill="#FFB6B6"/>
<path id="Vector_78" d="M161.765 259.92V320.676H215.277V259.92C215.278 259.483 215.102 259.058 214.777 258.706C214.451 258.354 213.992 258.095 213.467 257.965C213.22 257.901 212.96 257.868 212.7 257.871H164.349C164.01 257.87 163.675 257.923 163.361 258.026C163.048 258.128 162.763 258.279 162.523 258.47C162.283 258.66 162.093 258.886 161.962 259.135C161.832 259.384 161.765 259.651 161.765 259.92V259.92ZM182.648 280.796C182.662 279.598 183.27 278.454 184.34 277.611C185.41 276.767 186.855 276.295 188.361 276.295C189.867 276.295 191.312 276.767 192.381 277.611C193.451 278.454 194.059 279.598 194.073 280.796V287.846C194.065 289.047 193.46 290.196 192.39 291.044C191.319 291.891 189.871 292.366 188.361 292.366C186.851 292.366 185.402 291.891 184.332 291.044C183.261 290.196 182.656 289.047 182.648 287.846V280.796Z" fill="#2F2E41"/>
<path id="Vector_79" d="M161.601 318.733V324.592C161.602 324.895 161.754 325.186 162.023 325.401C162.292 325.616 162.657 325.738 163.039 325.741H214.003C214.385 325.739 214.751 325.618 215.02 325.402C215.289 325.187 215.441 324.895 215.441 324.592V318.733H161.601Z" fill="#3F3D56"/>
<path id="Vector_80" d="M77.5836 168.384V279.315C77.585 280.729 78.2916 282.084 79.5484 283.084C80.8051 284.084 82.5092 284.646 84.2865 284.647H290.96C292.738 284.646 294.442 284.084 295.698 283.084C296.955 282.084 297.662 280.729 297.663 279.315V168.384C297.659 166.972 296.951 165.618 295.695 164.62C294.438 163.622 292.736 163.06 290.96 163.059H84.2865C82.5108 163.06 80.8083 163.622 79.552 164.62C78.2956 165.618 77.5878 166.972 77.5836 168.384Z" fill="#3F3D56"/>
<path id="Vector_81" d="M82.4321 169.764V277.947C82.4337 278.702 82.8116 279.426 83.4831 279.96C84.1546 280.494 85.0648 280.795 86.0144 280.796H289.24C290.189 280.795 291.1 280.494 291.771 279.96C292.443 279.426 292.821 278.702 292.822 277.947V169.764C292.822 169.008 292.445 168.283 291.773 167.748C291.102 167.212 290.191 166.911 289.24 166.909H86.0144C85.0637 166.911 84.1526 167.212 83.481 167.748C82.8094 168.283 82.4322 169.008 82.4321 169.764Z" fill="white"/>
<path id="big-line4" d="M257.147 253H114.853C112.173 253 110 253.808 110 254.806V257.194C110 258.192 112.173 259 114.853 259H257.147C259.827 259 262 258.192 262 257.194V254.806C262 253.808 259.827 253 257.147 253Z" fill="#E6E6E6"/>
<path id="Vector_82" d="M120.147 325.344C120.354 325.55 120.617 325.717 120.916 325.83C121.216 325.944 121.543 326.003 121.875 326.002H242.781C243.112 326.001 243.438 325.942 243.737 325.829C244.035 325.716 244.298 325.551 244.506 325.347C244.714 325.142 244.863 324.904 244.941 324.648C245.018 324.393 245.024 324.126 244.956 323.869L243.079 316.778C243.001 316.489 242.834 316.22 242.592 315.995C242.35 315.771 242.041 315.598 241.694 315.493C241.442 315.414 241.174 315.374 240.904 315.374H123.744C123.474 315.374 123.207 315.414 122.955 315.493C122.608 315.598 122.299 315.771 122.057 315.995C121.815 316.22 121.648 316.489 121.57 316.778L119.693 323.869C119.626 324.126 119.632 324.392 119.711 324.647C119.789 324.902 119.938 325.14 120.147 325.344Z" fill="#2F2E41"/>
<path id="Vector_83" d="M282.645 181.812H92.4873C92.2896 181.808 92.1016 181.743 91.9633 181.631C91.8251 181.519 91.7477 181.368 91.7477 181.21C91.7477 181.053 91.8251 180.902 91.9633 180.79C92.1016 180.677 92.2896 180.612 92.4873 180.609H282.645C282.842 180.612 283.03 180.677 283.168 180.79C283.307 180.902 283.384 181.053 283.384 181.21C283.384 181.368 283.307 181.519 283.168 181.631C283.03 181.743 282.842 181.808 282.645 181.812V181.812Z" fill="#3F3D56"/>
<path id="red-dot" d="M105.432 177.538C107.879 177.538 109.863 175.924 109.863 173.934C109.863 171.944 107.879 170.331 105.432 170.331C102.984 170.331 101 171.944 101 173.934C101 175.924 102.984 177.538 105.432 177.538Z" fill="#EB1414"/>
<path id="green-dot" d="M120.741 177.538C123.189 177.538 125.173 175.924 125.173 173.934C125.173 171.944 123.189 170.331 120.741 170.331C118.293 170.331 116.309 171.944 116.309 173.934C116.309 175.924 118.293 177.538 120.741 177.538Z" fill="#14EE10"/>
<path id="blue-dot" d="M136.051 177.538C138.498 177.538 140.482 175.924 140.482 173.934C140.482 171.944 138.498 170.331 136.051 170.331C133.603 170.331 131.619 171.944 131.619 173.934C131.619 175.924 133.603 177.538 136.051 177.538Z" fill="#2B19F2"/>
<path id="Vector_84" d="M273.426 171.222H262.552C262.337 171.226 262.133 171.297 261.982 171.419C261.832 171.541 261.748 171.705 261.748 171.876C261.748 172.047 261.832 172.212 261.982 172.334C262.133 172.456 262.337 172.527 262.552 172.531H273.426C273.642 172.529 273.848 172.459 274 172.336C274.152 172.214 274.237 172.048 274.237 171.876C274.237 171.704 274.152 171.539 274 171.417C273.848 171.294 273.642 171.224 273.426 171.222Z" fill="#3F3D56"/>
<path id="Vector_85" d="M273.426 173.68H262.552C262.337 173.684 262.132 173.755 261.982 173.877C261.831 173.999 261.747 174.164 261.747 174.335C261.747 174.506 261.831 174.67 261.982 174.793C262.132 174.915 262.337 174.986 262.552 174.989H273.426C273.642 174.987 273.849 174.917 274.001 174.795C274.153 174.672 274.239 174.507 274.239 174.335C274.239 174.163 274.153 173.997 274.001 173.875C273.849 173.752 273.642 173.682 273.426 173.68V173.68Z" fill="#3F3D56"/>
<path id="Vector_86" d="M273.426 176.139H262.552C262.337 176.143 262.133 176.213 261.982 176.336C261.832 176.458 261.748 176.622 261.748 176.793C261.748 176.964 261.832 177.128 261.982 177.251C262.133 177.373 262.337 177.444 262.552 177.448H273.426C273.642 177.445 273.848 177.375 274 177.253C274.152 177.13 274.237 176.965 274.237 176.793C274.237 176.621 274.152 176.456 274 176.334C273.848 176.211 273.642 176.141 273.426 176.139V176.139Z" fill="#3F3D56"/>
<path id="Vector_87" d="M535.569 321.304C535.898 322.064 536.52 322.722 537.347 323.183C538.175 323.644 539.164 323.884 540.174 323.87L559.905 323.466C560.922 323.45 561.906 323.173 562.709 322.676C563.512 322.178 564.091 321.488 564.359 320.707L567.151 296.96C568.142 297.317 569.22 297.493 570.307 297.476C571.252 297.457 572.183 297.29 573.046 296.985C573.91 296.68 574.69 296.243 575.341 295.698C575.992 295.154 576.502 294.512 576.842 293.811C577.181 293.11 577.344 292.362 577.32 291.611C577.296 290.859 577.087 290.119 576.703 289.432C576.32 288.745 575.77 288.125 575.086 287.607C574.401 287.089 573.595 286.683 572.713 286.413C571.831 286.143 570.891 286.014 569.946 286.033C569.512 286.032 569.078 286.068 568.653 286.14C568.191 285.742 567.629 285.426 567.004 285.211C566.379 284.997 565.704 284.888 565.023 284.894L534.673 285.517C534.422 285.525 534.171 285.549 533.925 285.591C533.259 285.69 532.628 285.901 532.073 286.21C531.519 286.519 531.054 286.919 530.71 287.383C530.366 287.847 530.151 288.364 530.08 288.899C530.008 289.435 530.082 289.976 530.295 290.487L535.569 321.304ZM567.724 295.347L569.71 289.689C569.936 289.035 569.942 288.345 569.726 287.689C569.822 287.689 569.907 287.653 570.003 287.653C571.366 287.63 572.684 288.039 573.668 288.788C574.653 289.537 575.223 290.566 575.255 291.65C575.287 292.733 574.778 293.783 573.838 294.568C572.899 295.353 571.607 295.81 570.244 295.838C569.364 295.86 568.492 295.69 567.724 295.347Z" fill="#2F2E41"/>
<path id="Vector_88" d="M533.925 285.591C534.571 288.532 541.841 290.599 550.582 290.24C558.62 289.945 565.193 287.7 566.397 285.04C565.951 284.935 565.488 284.886 565.023 284.894L534.673 285.517C534.422 285.525 534.171 285.549 533.925 285.591V285.591Z" fill="#3F3D56"/>
<g id="code-sign">
<path id="Vector_89" d="M552.184 308.255C552.224 308.247 552.262 308.234 552.297 308.216L556.581 305.985C556.633 305.958 556.676 305.921 556.705 305.878C556.735 305.835 556.75 305.786 556.75 305.737C556.75 305.688 556.735 305.64 556.705 305.596C556.676 305.553 556.633 305.516 556.582 305.489L552.128 303.169C552.087 303.148 552.041 303.133 551.993 303.125C551.945 303.118 551.896 303.118 551.848 303.126C551.8 303.134 551.754 303.149 551.713 303.171C551.673 303.193 551.638 303.221 551.611 303.254C551.585 303.286 551.566 303.323 551.557 303.361C551.548 303.399 551.548 303.439 551.558 303.477C551.569 303.515 551.588 303.551 551.616 303.583C551.643 303.616 551.679 303.643 551.72 303.664L555.698 305.737L551.889 307.72C551.815 307.758 551.761 307.816 551.736 307.883C551.711 307.951 551.716 308.023 551.752 308.087C551.787 308.151 551.85 308.203 551.929 308.234C552.008 308.265 552.099 308.272 552.184 308.255H552.184Z" fill="#6C63FF"/>
<path id="Vector_90" d="M545.417 308.503C545.489 308.489 545.553 308.457 545.603 308.413C545.652 308.369 545.684 308.315 545.694 308.256C545.704 308.198 545.692 308.138 545.659 308.085C545.627 308.032 545.575 307.988 545.511 307.959L541.561 306.158L545.378 303.903C545.418 303.879 545.451 303.85 545.476 303.817C545.501 303.784 545.517 303.747 545.525 303.708C545.532 303.67 545.529 303.631 545.517 303.593C545.505 303.555 545.484 303.52 545.455 303.488C545.426 303.457 545.389 303.431 545.347 303.411C545.305 303.391 545.259 303.378 545.211 303.372C545.162 303.367 545.113 303.369 545.066 303.378C545.018 303.387 544.974 303.404 544.934 303.427L540.661 305.953C540.611 305.982 540.571 306.021 540.545 306.065C540.519 306.11 540.507 306.159 540.511 306.208C540.514 306.257 540.533 306.304 540.566 306.346C540.598 306.388 540.644 306.423 540.697 306.447L545.14 308.473C545.224 308.511 545.323 308.522 545.417 308.503V308.503Z" fill="#6C63FF"/>
<path id="Vector_91" d="M551.758 310.21C551.794 310.203 551.828 310.191 551.86 310.175C551.902 310.155 551.938 310.129 551.967 310.097C551.996 310.066 552.017 310.03 552.028 309.992C552.04 309.955 552.042 309.915 552.035 309.877C552.027 309.839 552.01 309.802 551.985 309.768L545.911 301.825C545.859 301.758 545.776 301.71 545.681 301.692C545.585 301.674 545.483 301.686 545.399 301.727C545.315 301.768 545.254 301.834 545.231 301.91C545.208 301.986 545.223 302.067 545.274 302.134L551.348 310.077C551.39 310.131 551.452 310.173 551.526 310.197C551.599 310.221 551.681 310.225 551.758 310.21Z" fill="#6C63FF"/>
</g>
<path id="big-line1" d="M257.044 215H189.956C187.219 215 185 215.808 185 216.806V219.194C185 220.192 187.219 221 189.956 221H257.044C259.781 221 262 220.192 262 219.194V216.806C262 215.808 259.781 215 257.044 215Z" fill="#6C63FF"/>
<path id="big-line2" d="M257.147 227H114.853C112.173 227 110 227.943 110 229.107V231.893C110 233.057 112.173 234 114.853 234H257.147C259.827 234 262 233.057 262 231.893V229.107C262 227.943 259.827 227 257.147 227Z" fill="#E6E6E6"/>
<path id="big-line3" d="M257.147 240H114.853C112.173 240 110 240.943 110 242.107V244.893C110 246.057 112.173 247 114.853 247H257.147C259.827 247 262 246.057 262 244.893V242.107C262 240.943 259.827 240 257.147 240Z" fill="#E6E6E6"/>
<path id="Vector_92" d="M235.513 283.24L235.674 283.645L235.683 283.659L240.543 295.411L246.133 308.953L256.651 334.403L256.753 338.356V338.37L257.535 370.172L255.368 374.484L257.807 381.552C257.807 381.552 256.685 370.867 250.67 377.003C247.263 380.49 243.278 384.059 240.007 387.404C244.774 388.938 249.617 390.325 254.536 391.566C255.598 391.837 256.668 392.094 257.739 392.35C257.968 392.404 258.198 392.458 258.427 392.513C274.734 396.348 291.592 398.504 308.588 398.926C309.471 398.946 310.338 398.959 311.179 398.973C311.477 398.98 311.765 398.987 312.054 398.987C313.006 398.993 313.949 399 314.9 399C316.821 399 318.732 398.978 320.635 398.932C334.721 398.617 348.725 397.11 362.411 394.438C362.317 389.945 362.062 384.694 361.697 379.085C361.527 376.334 357.712 373.354 357.483 370.475C357.321 368.313 360.745 366.279 360.567 364.082C359.412 350.56 357.967 355.751 356.897 346.175C356.786 345.236 356.684 344.337 356.591 343.479C355.903 337.329 355.427 333.484 355.427 333.484L359.998 310.568L367.177 274.59L366.625 273.867L366.005 273.624L328.137 258.716L326.081 254.526C325.482 253.319 324.443 252.282 323.097 251.549C321.751 250.815 320.16 250.419 318.528 250.411L293.584 250.329C292.289 250.325 291.012 250.566 289.858 251.032C288.704 251.499 287.707 252.178 286.948 253.012L280.194 260.453L235.513 283.24Z" fill="#3F3D56"/>
<path id="Vector_93" d="M262.403 328.74L256.753 338.356L252.896 344.925L246.261 372.558L242.939 375.362L240.092 365.434L210.303 370.695C209.326 366.377 210.042 370.841 209.439 366.104C209.608 365.969 209.787 365.834 209.965 365.698C210.441 365.347 210.84 365.016 210.832 364.698C210.492 348.358 211.512 320.55 220.025 303.702C221.358 300.952 223.116 298.343 225.258 295.938C225.428 295.755 225.59 295.573 225.751 295.39C229.676 291.018 232.157 286.713 235.674 283.652V283.645C235.696 283.631 235.716 283.615 235.734 283.598C235.747 283.593 235.758 283.586 235.768 283.578L259.931 273.387L260.967 296.553L261.707 313.204L262.403 328.74Z" fill="#3F3D56"/>
<path id="Vector_94" d="M349.53 331.471L356.587 343.482L359.051 347.665L365.684 375.295L368.995 378.093L371.848 368.167L373.189 367.948L397.363 363.966L404.409 381.765C405.997 379.66 406.622 377.184 406.18 374.755C405.737 372.326 404.254 370.093 401.98 368.433C401.499 368.087 401.098 367.75 401.109 367.431C401.51 348.212 400.032 313.118 386.685 298.674C382.446 294.091 379.902 289.525 376.202 286.336C376.19 286.327 376.19 286.317 376.179 286.317L367.174 274.589L366.624 273.869L366.005 273.623L349.53 331.471Z" fill="#3F3D56"/>
<path id="Ellipse 5" d="M306.777 244.683C325.105 244.683 339.962 232.865 339.962 218.287C339.962 203.709 325.105 191.891 306.777 191.891C288.449 191.891 273.591 203.709 273.591 218.287C273.591 232.865 288.449 244.683 306.777 244.683Z" fill="#FFB6B6"/>
<path id="Vector_95" d="M351.631 199.85C351.374 199.631 351.064 199.456 350.719 199.335C350.375 199.214 350.004 199.149 349.627 199.145L350.126 198.043C350.289 197.696 350.333 197.32 350.254 196.955C350.174 196.59 349.974 196.249 349.674 195.966C349.374 195.682 348.985 195.467 348.546 195.343C348.107 195.219 347.635 195.19 347.177 195.259L345.36 195.537L345.531 194.571C345.597 194.212 345.544 193.845 345.377 193.506C345.21 193.168 344.936 192.87 344.58 192.642C344.225 192.413 343.801 192.263 343.35 192.204C342.899 192.146 342.437 192.182 342.008 192.308C341.619 192.43 341.2 192.481 340.783 192.458C340.365 192.434 339.959 192.337 339.595 192.172C339.23 192.013 338.913 191.792 338.666 191.525C338.419 191.258 338.248 190.951 338.165 190.626L337.532 188.197L337.465 188.067C334.382 183.979 328.454 181.006 321.2 179.916C314.742 178.938 308.121 179.436 301.739 179.904C299.207 180.093 296.347 180.307 293.963 181.468C291.938 182.463 290.225 184.453 290.575 186.462C284.281 184.927 277.534 187.99 274.19 191.852C270.228 196.449 269.58 202.207 269.475 206.709C269.192 217.361 271.955 226.075 277.668 232.615C278.085 233.089 278.189 234.078 279.016 234.41L278.845 234.19C279.768 234.558 280.706 235.15 280.356 235.784C279.351 237.609 286.032 241.643 290.739 242.976C299.326 245.41 310.743 245.203 318.772 244.326L319.055 242.816C321.952 242.502 323.992 241.903 324.566 240.967C325.579 240.28 326.443 239.664 327.195 239.095L327.202 239.09C327.217 239.078 327.247 239.06 327.262 239.048C330.889 236.282 331.731 234.706 332.11 232.307C332.475 229.955 331.827 227.568 331.165 225.417C345.122 227.135 325.668 213.593 338.672 210.975C338.821 210.938 338.973 210.908 339.126 210.886C339.506 210.815 339.886 210.744 340.251 210.661C342.01 210.281 343.694 209.709 345.256 208.961C348.89 207.201 350.089 204.867 351.966 202.237C352.237 201.862 352.35 201.429 352.29 201C352.23 200.57 351.999 200.167 351.631 199.85V199.85Z" fill="#2F2E41"/>
<path id="Vector_96" d="M424.149 333.351C424.142 334.387 424.127 335.839 424.067 337.634C424.06 337.883 424.052 338.137 424.045 338.398C423.948 341.697 423.851 344.464 423.695 347.538C423.687 347.752 423.68 347.959 423.665 348.172C423.457 352.461 423.129 357.455 422.563 365.363C421.513 379.972 419.681 367.372 417.841 372.496C417.752 372.751 417.655 373.053 417.565 373.408C417.287 374.698 416.817 375.956 416.165 377.158C415.19 377.62 414.184 378.064 413.194 378.509C410.371 379.759 407.504 380.961 404.614 382.104C402.99 382.744 401.359 383.372 399.721 383.976C399.46 384.071 399.207 384.166 398.954 384.255C390.563 387.342 381.916 389.966 373.073 392.11C371.345 392.525 369.625 392.927 367.882 393.301C366.065 393.703 364.247 394.083 362.408 394.438C348.723 397.11 334.719 398.618 320.634 398.934C318.734 398.982 316.82 398.999 314.899 398.999C313.946 398.999 313.007 398.994 312.054 398.988C311.763 398.988 311.473 398.982 311.183 398.976C310.341 398.958 309.47 398.946 308.591 398.928C291.594 398.507 274.736 396.351 258.43 392.513L257.738 392.353C256.665 392.092 255.6 391.837 254.535 391.565C249.62 390.327 244.776 388.941 240.005 387.406C236.363 386.239 232.763 384.987 229.206 383.651C229.173 383.644 229.143 383.632 229.116 383.615C228.371 383.343 227.619 383.058 226.875 382.768C226.778 382.726 226.673 382.685 226.569 382.644C223.791 381.565 221.043 380.436 218.325 379.255C216.038 375.079 212.821 374.279 210.825 370.606C210.244 369.515 209.824 368.374 209.573 367.206C209.573 367.194 209.566 367.182 209.566 367.164C209.775 369.368 208.68 363.255 209.559 367.141C209.551 367.07 209.544 366.993 209.536 366.904C209.514 366.69 209.484 366.43 209.439 366.104C206.885 346.265 207.049 323.576 205.939 304.88C205.865 303.672 205.788 302.515 205.708 301.409C205.686 301.042 205.656 300.68 205.626 300.325C205.678 300.218 205.738 300.106 205.805 299.999C205.819 299.968 205.837 299.939 205.857 299.91C205.879 299.874 205.904 299.838 205.932 299.804C205.946 299.786 205.969 299.762 205.984 299.744C205.995 299.724 206.007 299.704 206.021 299.685C206.088 299.602 206.162 299.513 206.244 299.43C206.282 299.395 206.311 299.365 206.349 299.336C206.374 299.305 206.404 299.278 206.438 299.253C206.461 299.224 206.488 299.198 206.52 299.176C206.55 299.152 206.58 299.122 206.617 299.093C206.633 299.074 206.653 299.058 206.676 299.045C206.735 298.992 206.8 298.942 206.87 298.897C207.136 298.703 207.42 298.525 207.719 298.364C207.823 298.311 207.935 298.258 208.039 298.198C208.79 297.841 209.58 297.54 210.4 297.298C210.683 297.215 210.966 297.138 211.272 297.055C211.383 297.031 211.488 297.002 211.599 296.972C211.763 296.931 211.927 296.889 212.098 296.859C212.947 296.658 213.863 296.486 214.854 296.326C214.973 296.309 215.1 296.291 215.226 296.267C215.405 296.237 215.591 296.214 215.777 296.19C216.031 296.155 216.291 296.119 216.552 296.083C218.764 295.805 221.274 295.598 224.044 295.461C224.305 295.45 224.566 295.438 224.826 295.426C225.132 295.414 225.437 295.402 225.75 295.39C226.011 295.379 226.279 295.373 226.547 295.367C226.807 295.355 227.076 295.349 227.351 295.343C228.103 295.325 228.878 295.307 229.667 295.296C231.917 295.26 234.285 295.272 236.773 295.313C237.927 295.337 239.104 295.361 240.31 295.402C240.392 295.402 240.467 295.408 240.541 295.408C241.591 295.438 242.649 295.473 243.736 295.521C244.496 295.55 245.263 295.58 246.03 295.615C246.752 295.651 247.482 295.687 248.22 295.728C248.793 295.752 249.367 295.787 249.947 295.817C250.439 295.847 250.931 295.876 251.422 295.9L252.092 295.935C252.457 295.959 252.822 295.977 253.195 296.006C254.014 296.06 254.833 296.113 255.667 296.166C256.494 296.226 257.336 296.285 258.177 296.344C259.019 296.403 259.868 296.469 260.717 296.534C260.806 296.54 260.888 296.546 260.97 296.551C261.745 296.617 262.519 296.676 263.301 296.741C263.48 296.753 263.666 296.765 263.845 296.782C264.59 296.842 265.351 296.912 266.103 296.975C266.334 296.995 266.564 297.014 266.795 297.035C267.385 297.086 267.966 297.13 268.559 297.185C269.341 297.256 270.138 297.322 270.913 297.404C271.516 297.458 272.119 297.511 272.722 297.57C273.668 297.659 274.629 297.754 275.59 297.855C275.955 297.89 276.32 297.926 276.685 297.967C279.425 298.24 282.196 298.542 285.011 298.856C289.279 299.336 293.613 299.857 297.978 300.42C302.349 300.983 306.746 301.577 311.168 302.203C312.285 302.363 313.402 302.523 314.526 302.689C315.033 302.766 315.539 302.843 316.046 302.92C316.91 303.044 317.774 303.174 318.638 303.305C319.501 303.435 320.365 303.565 321.229 303.702C322.257 303.862 323.292 304.021 324.32 304.181C331.09 305.248 337.823 306.385 344.392 307.576C345.472 307.771 346.552 307.973 347.624 308.168C349.769 308.565 351.894 308.968 353.999 309.377C354.58 309.483 355.154 309.596 355.727 309.708C357.157 309.993 358.587 310.277 359.995 310.567L360.24 310.621C361.276 310.822 362.289 311.029 363.301 311.243C365.692 311.74 368.043 312.244 370.354 312.753C371.889 313.091 373.405 313.433 374.905 313.778C377.147 314.294 379.344 314.815 381.481 315.342C382.01 315.472 382.539 315.603 383.06 315.727C384.624 316.112 386.166 316.503 387.663 316.894C388.854 317.202 390.016 317.516 391.163 317.83C392.31 318.144 393.435 318.458 394.537 318.772C395.245 318.973 395.945 319.187 396.645 319.388C397.65 319.684 398.641 319.98 399.609 320.277C399.907 320.366 400.197 320.46 400.488 320.549C400.674 320.614 400.853 320.668 401.031 320.727C401.381 320.839 401.739 320.946 402.082 321.059C402.432 321.165 402.774 321.278 403.117 321.396C403.452 321.503 403.795 321.615 404.122 321.728C404.457 321.835 404.785 321.947 405.113 322.066C405.388 322.155 405.656 322.249 405.917 322.344C406.446 322.528 406.975 322.711 407.489 322.901C407.742 322.996 407.995 323.085 408.248 323.179L408.829 323.393C408.911 323.428 408.993 323.458 409.075 323.487C409.261 323.559 409.455 323.636 409.641 323.707C410.073 323.867 410.497 324.038 410.915 324.198C411.473 324.423 412.017 324.649 412.538 324.868C413.067 325.093 413.581 325.318 414.072 325.537C414.154 325.573 414.229 325.608 414.311 325.644C414.422 325.691 414.534 325.744 414.646 325.792C415.026 325.964 415.391 326.141 415.756 326.313C416.471 326.663 417.148 327.006 417.781 327.35C417.923 327.427 418.057 327.504 418.198 327.575C418.668 327.841 419.114 328.102 419.532 328.369C419.532 328.375 419.532 328.375 419.539 328.375C419.681 328.458 419.815 328.546 419.949 328.629C420.06 328.712 420.179 328.783 420.291 328.866C420.678 329.133 421.036 329.388 421.364 329.648C421.474 329.729 421.578 329.814 421.677 329.903C421.72 329.932 421.76 329.963 421.796 329.998C421.945 330.116 422.079 330.235 422.205 330.353C422.225 330.369 422.242 330.387 422.257 330.406C422.436 330.572 422.6 330.738 422.756 330.904C422.831 330.987 422.913 331.07 422.98 331.153C423.069 331.254 423.159 331.36 423.233 331.461C423.3 331.544 423.36 331.633 423.419 331.716C423.577 331.929 423.712 332.153 423.821 332.385C423.905 332.542 423.972 332.705 424.023 332.871C424.079 333.028 424.121 333.189 424.149 333.351V333.351Z" fill="#2F2E41"/>
<path id="Vector_97" opacity="0.2" d="M424.149 333.351C424.142 334.387 424.127 335.839 424.067 337.634C424.06 337.883 424.045 338.137 424.037 338.398C423.963 340.916 423.851 344.026 423.695 347.538C423.687 347.752 423.68 347.959 423.665 348.172C423.456 352.461 423.129 357.455 422.563 365.364C421.513 379.972 419.681 367.372 417.841 372.496C412.732 369.996 407.131 367.378 401.143 364.688C400.063 364.202 398.973 363.715 397.874 363.225C385.898 357.911 372.522 352.343 358.557 346.828C358.006 346.608 357.448 346.389 356.896 346.176C324.909 333.6 289.994 321.367 261.707 313.204C256.248 311.628 251.035 310.206 246.134 308.956C235.812 306.332 226.889 304.495 220.023 303.702C212.873 302.872 207.935 303.168 205.939 304.88C205.864 303.672 205.787 302.515 205.708 301.409C205.678 301.042 205.648 300.68 205.619 300.325C205.665 300.227 205.724 300.134 205.782 300.041C205.79 300.027 205.796 300.013 205.805 299.999C205.819 299.968 205.837 299.939 205.857 299.91C205.879 299.874 205.904 299.838 205.932 299.804C205.956 299.762 205.986 299.722 206.021 299.685C206.088 299.602 206.162 299.513 206.244 299.43C206.305 299.368 206.369 299.309 206.438 299.253C206.461 299.224 206.488 299.198 206.52 299.176C206.55 299.152 206.579 299.122 206.617 299.093C206.633 299.074 206.653 299.058 206.676 299.045C206.735 298.992 206.8 298.942 206.87 298.897C207.136 298.703 207.419 298.525 207.719 298.364C207.823 298.311 207.935 298.257 208.039 298.198C208.79 297.841 209.58 297.54 210.4 297.298C210.683 297.215 210.966 297.138 211.272 297.055C211.383 297.031 211.487 297.002 211.599 296.972C211.763 296.931 211.927 296.889 212.098 296.859C212.947 296.658 213.863 296.486 214.854 296.326C215.152 296.279 215.465 296.232 215.777 296.19C216.031 296.155 216.291 296.119 216.552 296.083C218.764 295.805 221.274 295.598 224.044 295.461C224.305 295.45 224.566 295.438 224.826 295.426C225.132 295.414 225.437 295.402 225.75 295.39C226.011 295.378 226.279 295.373 226.547 295.367C226.807 295.355 227.076 295.349 227.351 295.343C228.103 295.325 228.878 295.307 229.667 295.296C231.917 295.266 234.285 295.278 236.772 295.319C237.927 295.337 239.104 295.367 240.31 295.408C240.385 295.408 240.467 295.414 240.541 295.414C241.591 295.438 242.656 295.479 243.736 295.521C244.496 295.55 245.263 295.58 246.03 295.615C246.752 295.651 247.482 295.687 248.22 295.728C248.793 295.752 249.366 295.787 249.947 295.817C250.439 295.846 250.93 295.876 251.422 295.9C252.01 295.935 252.599 295.971 253.195 296.006C254.014 296.06 254.833 296.113 255.667 296.166C256.494 296.226 257.336 296.285 258.177 296.344C259.019 296.403 259.868 296.468 260.717 296.534C260.806 296.54 260.888 296.545 260.97 296.551C261.745 296.617 262.519 296.676 263.301 296.741C267.636 297.091 272.097 297.499 276.685 297.967C279.425 298.246 282.201 298.544 285.011 298.862C289.279 299.342 293.613 299.863 297.978 300.42C302.349 300.982 306.746 301.577 311.167 302.203C312.285 302.363 313.402 302.523 314.526 302.689C315.897 302.89 317.267 303.095 318.638 303.305C319.501 303.435 320.365 303.565 321.229 303.702C322.257 303.862 323.292 304.021 324.32 304.181C331.09 305.248 337.823 306.385 344.392 307.576C345.472 307.771 346.552 307.973 347.624 308.168C349.769 308.565 351.894 308.968 353.999 309.377C354.58 309.489 355.154 309.602 355.727 309.714C357.164 309.999 358.587 310.283 359.995 310.567V310.573C360.077 310.585 360.158 310.603 360.24 310.621C361.268 310.828 362.288 311.035 363.301 311.249C365.692 311.746 368.043 312.248 370.354 312.753C371.889 313.097 373.408 313.435 374.905 313.778C377.147 314.299 379.344 314.821 381.481 315.342C382.01 315.472 382.539 315.603 383.06 315.727C384.624 316.118 386.158 316.507 387.663 316.894C388.854 317.202 390.016 317.516 391.163 317.83C392.31 318.144 393.435 318.458 394.537 318.772C395.252 318.973 395.952 319.181 396.645 319.382C397.658 319.678 398.641 319.975 399.609 320.277C399.907 320.366 400.197 320.46 400.488 320.549C401.031 320.715 401.56 320.887 402.082 321.059C402.432 321.165 402.774 321.278 403.117 321.396C403.452 321.503 403.795 321.615 404.122 321.728C404.457 321.835 404.785 321.947 405.113 322.066C405.388 322.155 405.656 322.249 405.917 322.344C406.446 322.528 406.975 322.711 407.489 322.901C407.742 322.996 407.995 323.085 408.248 323.179L408.829 323.393C408.911 323.428 408.993 323.458 409.075 323.487C409.708 323.724 410.319 323.961 410.915 324.198C411.473 324.423 412.017 324.648 412.538 324.868C413.156 325.128 413.745 325.383 414.311 325.644C414.422 325.691 414.534 325.744 414.646 325.792C415.026 325.964 415.391 326.141 415.756 326.313C416.471 326.663 417.148 327.006 417.781 327.35C418.407 327.693 418.988 328.031 419.532 328.369C419.532 328.375 419.532 328.375 419.539 328.375C419.8 328.54 420.053 328.706 420.291 328.866C420.678 329.133 421.036 329.388 421.364 329.648C421.474 329.729 421.578 329.814 421.676 329.903C421.72 329.932 421.76 329.963 421.796 329.998C421.952 330.134 422.108 330.27 422.257 330.407C422.436 330.572 422.6 330.738 422.756 330.904C422.831 330.987 422.913 331.07 422.98 331.153C423.069 331.254 423.159 331.36 423.233 331.461C423.3 331.544 423.36 331.633 423.419 331.716C423.577 331.929 423.712 332.153 423.821 332.385C423.903 332.543 423.97 332.705 424.023 332.871C424.079 333.028 424.121 333.189 424.149 333.351V333.351Z" fill="black"/>
</g>
</g>
<defs>
<clipPath id="clip0_0_1">
<rect width="586" height="339" fill="white" transform="translate(19 60)"/>
</clipPath>
</defs>
</svg>
